<?xml version="1.0" encoding="utf-8"?>
<svg width="100%" height="100%" viewBox="0 0 592 159" version="1.1" style="fill-rule:evenodd;clip-rule:evenodd;stroke-linejoin:round;stroke-miterlimit:2;" xmlns="http://www.w3.org/2000/svg">
  <defs/>
  <g transform="matrix(4.16667,0,0,4.16667,0,0)">
    <path d="M98.073,7.979L98.073,5.436C97.483,4.847 95.163,4.097 93.112,3.948C93.11,4.43 93.112,5.126 93.112,5.126C94.104,5.22 95.997,6.273 98.073,7.979Z" style="fill-rule: nonzero; fill: rgb(255, 255, 255);"/>
    <path d="M98.012,12.908L98.012,10.211C97.668,9.869 95.375,9.002 93.08,8.94C93.069,9.364 93.112,10.054 93.112,10.054C94.354,10.428 95.655,10.831 98.012,12.908Z" style="fill-rule: nonzero; fill: rgb(255, 255, 255);"/>
    <path d="M75.77,14.204L75.741,16.716L71.612,16.716L71.612,18.001L75.825,18.001L75.825,20.594L70.159,20.594L70.159,21.879L82.942,21.879L82.942,20.542L77.946,20.542L77.946,17.944L82.048,17.944L82.048,16.633L77.975,16.633L77.975,14.176C77.975,14.176 81.629,14.148 81.964,14.148C82.298,14.148 82.466,13.843 82.466,13.395C82.466,12.948 82.522,2.511 82.522,2.289C82.522,2.064 82.188,1.533 81.796,1.533L71.108,1.533L71.134,14.204L75.77,14.204ZM78.002,2.818L80.29,2.818L80.29,7.117L77.946,7.117L78.002,2.818ZM80.317,8.511L80.317,12.754L78.002,12.754L77.918,8.511L80.317,8.511ZM73.37,2.79L75.796,2.79L75.796,7.117L73.34,7.117L73.37,2.79ZM75.796,8.511L75.796,12.754L73.313,12.754L73.286,8.511L75.796,8.511Z" style="fill-rule: nonzero; fill: rgb(255, 255, 255);"/>
    <path d="M62.512,22.715L62.512,20.284C60.819,19.965 58.987,18.311 57.295,15.598L56.485,15.598C57.295,18.733 59.374,21.446 62.512,22.715Z" style="fill-rule: nonzero; fill: rgb(255, 255, 255);"/>
    <path d="M61.731,14.066L61.731,6.223C61.731,5.915 61.647,5.609 61.003,5.609L45.767,5.609L45.767,14.847L52.799,14.847L52.799,21.321C52.799,21.573 52.688,21.655 52.409,21.655C51.991,21.684 50.175,21.655 50.175,21.655L50.175,22.799C50.175,22.799 52.856,22.858 53.581,22.799C54.307,22.743 54.919,21.936 54.919,21.182C54.919,20.428 54.949,14.791 54.949,14.791L61.286,14.791C61.491,14.787 61.745,14.341 61.731,14.066ZM59.55,13.273L47.921,13.273L47.886,7.104L59.55,7.104L59.55,13.273Z" style="fill-rule: nonzero; fill: rgb(255, 255, 255);"/>
    <path d="M50.819,15.824L48.67,15.824C48.67,15.824 48.028,19.704 44.761,21.852L44.761,22.799C48.556,20.846 49.73,19.116 50.819,15.824Z" style="fill-rule: nonzero; fill: rgb(255, 255, 255);"/>
    <path d="M70.747,16.214L68.484,17.191L68.484,10.8L70.579,10.8L70.579,9.516L68.513,9.516L68.513,4.072L70.662,4.072L70.662,2.79L64.269,2.79L64.269,4.13L66.364,4.13L66.364,9.571L64.243,9.571L64.243,10.856L66.336,10.856L66.336,18.027C66.336,18.027 65.332,18.475 63.825,18.811L63.825,21.348C63.893,21.323 67.37,20.317 70.747,17.275L70.747,16.214Z" style="fill-rule: nonzero; fill: rgb(255, 255, 255);"/>
    <path d="M63.015,2.79L54.977,2.79L54.977,0.947L52.827,0.947L52.799,2.847L44.4,2.847L44.4,4.13L63.015,4.13L63.015,2.79Z" style="fill-rule: nonzero; fill: rgb(255, 255, 255);"/>
    <path d="M42.724,20.344C39.794,19.702 38.315,18.308 35.943,15.208C35.943,15.208 41.134,15.237 41.413,15.237C41.518,15.242 42.041,14.957 41.971,14.455C41.971,13.562 41.986,7.395 41.986,6.725C41.986,6.418 41.844,6.026 41.174,5.943C40.253,5.943 34.983,6.026 34.983,6.026L34.983,4.13L43.1,4.018L43.1,2.679L34.897,2.679L34.897,0.92L32.721,0.92L32.721,2.762L24.519,2.762L24.556,4.186L32.788,4.13L32.788,6.026L25.895,6.026L25.895,15.208L30.974,15.208C30.528,16.8 28.715,19.815 25.031,21.936L25.031,22.827C27.737,22.465 30.391,19.815 32.788,16.522L32.788,22.772L34.965,22.772L34.965,15.878C35.47,17.555 38.426,21.294 42.668,22.743L42.724,20.344ZM32.762,13.898L28.128,13.898L28.128,11.302L32.762,11.275L32.762,13.898ZM32.788,9.851L28.1,9.851L28.128,7.395L32.788,7.395L32.788,9.851ZM34.965,7.395L39.738,7.367L39.738,9.906L34.965,9.906L34.965,7.395ZM34.965,11.275L39.767,11.275L39.767,13.87L34.965,13.87L34.965,11.275Z" style="fill-rule: nonzero; fill: rgb(255, 255, 255);"/>
    <path d="M92.833,16.629L92.833,14.086C90.756,12.63 89.7,10.736 89.607,8.971L92.398,8.971L92.398,7.637L89.454,7.637L89.454,3.916C91.064,3.916 91.594,3.793 92.183,3.576L92.15,0.94C88.803,1.932 84.432,2.968 83.811,2.903L83.831,4.17C85.414,4.261 87.284,4.041 87.284,4.041L87.284,7.544L84.09,7.544L84.09,8.971L87.127,8.971C87.064,12.691 85.019,17.188 84.09,17.776L84.09,18.955C85.67,17.992 87.127,15.885 87.252,15.388L87.252,22.737L89.391,22.737L89.391,12.66C90.54,15.017 91.344,16.01 92.833,16.629Z" style="fill-rule: nonzero; fill: rgb(255, 255, 255);"/>
    <path d="M99.284,22.706L101.423,22.706L101.423,14.953C101.423,14.953 102.417,14.303 103.561,13.124L103.561,11.947L101.483,13.25L101.483,0.909L99.284,0.909L99.22,14.489C98.599,14.861 96.025,16.226 92.833,17.187L92.833,19.948C93.081,19.948 96.244,18.427 99.284,16.412L99.284,22.706Z" style="fill-rule: nonzero; fill: rgb(255, 255, 255);"/>
    <path d="M122.415,19.917C117.64,17.867 114.724,13.342 113.732,7.885L122.011,7.885L122.011,6.365L113.578,6.365L113.578,0.971L111.097,0.971L111.035,6.397L103.562,6.397L103.562,7.947L110.912,8.041C111.221,11.203 107.251,19.356 103.128,21.622C103.128,21.622 103.064,22.333 103.128,22.737C106.998,21.768 111.392,15.747 112.987,11.142C113.919,16.039 117.765,21.094 122.415,22.737L122.415,19.917Z" style="fill-rule: nonzero; fill: rgb(255, 255, 255);"/>
    <path d="M134.011,12.164C134.633,11.978 137.701,10.241 138.508,7.916L126.508,7.916L126.535,9.403L134.853,9.403C134.853,10.101 133.178,11.33 130.832,12.111C131.084,12.363 132.062,13.06 132.451,14.26L123.466,14.26L123.466,15.684L132.992,15.684C133.802,19.917 132.078,21.378 131.522,21.432C130.964,21.489 128.043,21.489 128.043,21.489L128.043,22.758C128.043,22.758 133.429,22.786 133.68,22.676C135.408,21.868 136.102,17.817 135.655,15.543L141.575,15.543L141.575,14.211L135.345,14.211C135.251,13.993 134.88,13.001 134.011,12.164Z" style="fill-rule: nonzero; fill: rgb(255, 255, 255);"/>
    <path d="M141.206,4.691C140.833,4.66 137.019,4.568 137.019,4.568C137.36,4.351 138.974,3.047 139.996,0.941L137.329,0.941C137.206,1.342 136.493,3.266 135.252,4.66L133.482,4.754C133.359,4.104 132.274,2.211 130.974,0.971L129.453,0.971C129.671,1.218 130.787,2.894 131.034,4.691L129.05,4.691C129.205,4.537 128.431,2.924 126.693,0.909L125.019,0.909C125.019,0.909 126.445,3.143 126.663,4.691L122.941,4.691L122.941,10.799L125.267,10.799L125.267,6.21L139.47,6.21L139.47,10.707L141.731,10.707L141.731,5.25C141.731,4.847 141.576,4.724 141.206,4.691Z" style="fill-rule: nonzero; fill: rgb(255, 255, 255);"/>
    <path d="M14.608,11.857C14.608,13.432 13.329,14.709 11.752,14.709C10.175,14.709 8.899,13.432 8.899,11.857C8.899,10.282 10.175,9.002 11.752,9.002C13.329,9.002 14.608,10.282 14.608,11.857Z" style="fill: rgb(0, 166, 80); fill-rule: nonzero;"/>
    <path d="M8.807,11.857C8.807,13.482 10.128,14.804 11.751,14.804C13.377,14.804 14.698,13.482 14.698,11.857C14.698,10.231 13.377,8.909 11.751,8.909C10.128,8.909 8.807,10.231 8.807,11.857ZM8.993,11.857C8.993,10.335 10.231,9.096 11.751,9.096C13.274,9.096 14.512,10.335 14.512,11.857C14.512,13.378 13.274,14.617 11.751,14.617C10.231,14.617 8.993,13.378 8.993,11.857Z" style="fill: rgb(0, 166, 80); fill-rule: nonzero;"/>
    <path d="M5.622,21.559L5.404,21.385L5.26,21.208L5.446,20.913L5.475,20.93L5.506,21.006L5.565,21.11L5.65,21.215L5.773,21.313L5.918,21.376L6.018,21.338L6.029,21.262L5.953,21.161L5.866,21.077L5.775,20.983L5.654,20.737L5.721,20.483L5.844,20.364L6.021,20.307L6.235,20.331L6.476,20.438L6.678,20.6L6.811,20.76L6.631,21.044L6.603,21.028L6.57,20.956L6.518,20.87L6.441,20.776L6.34,20.692L6.196,20.639L6.1,20.672L6.092,20.749L6.176,20.864L6.265,20.95L6.358,21.045L6.469,21.276L6.404,21.516L6.272,21.645L6.094,21.698L5.874,21.676L5.622,21.559Z" style="fill: rgb(0, 166, 80); fill-rule: nonzero;"/>
    <path d="M6.811,22.178L6.44,21.993L7.038,20.809L7.408,20.993L6.811,22.178ZM7.499,20.829L7.11,20.635L7.253,20.344L7.646,20.542L7.499,20.829Z" style="fill:rgb(0,166,80);fill-rule:nonzero;"/>
    <path d="M8.351,22.803L7.963,22.659L8.196,22.04L8.246,21.885L8.264,21.768L8.229,21.686L8.134,21.628L8.032,21.612L7.907,21.628L7.577,22.516L7.188,22.368L7.655,21.129L8.041,21.272L7.991,21.405L8.223,21.348L8.44,21.378C8.565,21.426 8.649,21.503 8.686,21.606C8.722,21.713 8.71,21.84 8.655,21.993L8.351,22.803Z" style="fill:rgb(0,166,80);fill-rule:nonzero;"/>
    <path d="M9.411,23.102C9.303,23.075 9.208,23.04 9.127,22.995L8.922,22.819C8.872,22.749 8.836,22.665 8.821,22.571C8.802,22.479 8.807,22.374 8.834,22.258C8.862,22.133 8.905,22.032 8.965,21.956L9.17,21.774C9.247,21.737 9.333,21.713 9.426,21.706C9.519,21.704 9.614,21.708 9.709,21.731L9.918,21.803L10.116,21.932L10.038,22.274L9.984,22.264L9.935,22.2L9.872,22.131L9.782,22.069L9.663,22.024C9.556,22.001 9.469,22.02 9.396,22.079C9.322,22.137 9.273,22.229 9.247,22.35C9.215,22.483 9.224,22.587 9.269,22.665C9.316,22.743 9.388,22.792 9.489,22.817L9.627,22.827L9.737,22.807L9.816,22.774L9.876,22.737L9.93,22.749L9.85,23.094L9.764,23.112L9.665,23.124L9.548,23.124L9.411,23.102Z" style="fill:rgb(0,166,80);fill-rule:nonzero;"/>
    <path d="M10.549,22.413L10.643,22.223L10.835,22.167L11.002,22.251L11.045,22.458L10.549,22.413ZM11.005,23.313L11.145,23.299L11.262,23.276L11.359,23.247L11.391,22.911L11.346,22.903L11.272,22.944L11.174,22.983L11.045,23.016L10.901,23.016L10.748,22.987L10.63,22.922L10.553,22.817L10.528,22.657L11.429,22.743L11.442,22.594C11.46,22.391 11.424,22.229 11.331,22.11C11.241,21.993 11.094,21.924 10.894,21.905C10.67,21.885 10.491,21.932 10.357,22.051C10.22,22.167 10.144,22.333 10.124,22.547C10.104,22.768 10.153,22.944 10.274,23.075C10.395,23.208 10.583,23.286 10.828,23.307L11.005,23.313Z" style="fill:rgb(0,166,80);fill-rule:nonzero;"/>
    <path d="M13.725,23.17L12.571,23.299L12.539,22.995L12.903,22.952L12.798,22.03L12.435,22.071L12.403,21.79L12.56,21.76L12.683,21.713L12.759,21.628L12.784,21.504L13.164,21.463L13.327,22.903L13.69,22.866L13.725,23.17Z" style="fill:rgb(0,166,80);fill-rule:nonzero;"/>
    <path d="M14.659,21.743L14.622,21.872L14.497,21.858L14.413,21.846L14.286,21.799L14.22,21.696L14.247,21.565L14.386,21.477L14.552,21.489L14.646,21.614L14.659,21.743ZM15.159,22.032C15.085,21.971 14.989,21.932 14.865,21.917L14.862,21.913L15.034,21.69L15.044,21.456L14.958,21.295L14.804,21.19L14.59,21.151C14.506,21.151 14.413,21.165 14.306,21.192C14.21,21.217 14.124,21.254 14.049,21.299L13.879,21.45L13.795,21.629L13.801,21.815L13.922,22.032C13.979,22.09 14.064,22.131 14.174,22.155L14.176,22.161L13.987,22.385C13.95,22.462 13.946,22.551 13.97,22.647L14.06,22.829L14.223,22.958C14.291,22.987 14.368,23.003 14.461,23.006C14.553,23.01 14.659,22.999 14.771,22.967C14.88,22.938 14.971,22.901 15.047,22.852L15.23,22.688L15.318,22.491L15.308,22.276C15.282,22.174 15.232,22.09 15.159,22.032ZM14.896,22.512L14.855,22.588L14.789,22.641L14.713,22.672L14.499,22.657L14.37,22.485L14.367,22.331L14.417,22.2L14.539,22.215L14.644,22.229L14.824,22.29L14.892,22.407L14.896,22.512Z" style="fill:rgb(0,166,80);fill-rule:nonzero;"/>
    <path d="M16.08,21.217L16.064,21.35L15.937,21.358L15.852,21.356L15.719,21.325L15.641,21.237L15.648,21.102L15.771,20.999L15.937,20.985L16.049,21.092L16.08,21.217ZM16.622,21.43C16.538,21.381 16.433,21.36 16.309,21.36L16.307,21.356L16.443,21.112L16.42,20.874L16.312,20.729L16.143,20.651L15.926,20.645C15.845,20.655 15.752,20.682 15.653,20.725C15.557,20.766 15.478,20.813 15.415,20.872L15.269,21.044L15.212,21.233L15.245,21.417L15.393,21.612C15.46,21.663 15.549,21.69 15.663,21.696L15.668,21.704L15.512,21.95C15.486,22.032 15.495,22.124 15.538,22.215L15.648,22.383L15.829,22.483C15.898,22.503 15.979,22.508 16.072,22.499C16.166,22.485 16.264,22.458 16.372,22.413C16.475,22.366 16.559,22.317 16.629,22.258L16.785,22.071L16.844,21.862L16.803,21.651C16.761,21.551 16.698,21.477 16.622,21.43ZM16.43,21.944L16.4,22.026L16.341,22.09L16.273,22.131L16.055,22.145L15.907,21.997L15.877,21.844L15.91,21.706L16.032,21.704L16.14,21.7L16.325,21.735L16.411,21.84L16.43,21.944Z" style="fill:rgb(0,166,80);fill-rule:nonzero;"/>
    <path d="M18.387,21.264L17.398,21.876L17.239,21.616L17.552,21.42L17.065,20.633L16.75,20.829L16.6,20.583L16.73,20.489L16.823,20.395L16.857,20.286L16.824,20.163L17.153,19.962L17.913,21.198L18.224,21.004L18.387,21.264Z" style="fill:rgb(0,166,80);fill-rule:nonzero;"/>
    <path d="M4.424,17.926L3.085,19.014L3.483,19.503L3.174,19.753L2.039,18.362L2.351,18.109L2.749,18.599L4.087,17.509L4.424,17.926Z" style="fill:rgb(0,166,80);fill-rule:nonzero;"/>
    <path d="M2.387,16.153L2.628,16.145L2.813,16.219L2.934,16.36L2.985,16.539L2.945,16.735L2.805,16.929C2.741,16.99 2.651,17.055 2.535,17.116C2.421,17.177 2.32,17.216 2.226,17.234C2.133,17.254 2.049,17.256 1.981,17.244L1.796,17.166L1.684,17.025L1.633,16.85L1.669,16.654L1.817,16.459C1.883,16.395 1.971,16.331 2.083,16.272C2.201,16.211 2.303,16.17 2.387,16.153ZM1.238,16.406C1.151,16.664 1.18,16.93 1.33,17.216C1.483,17.498 1.686,17.675 1.949,17.744C2.21,17.813 2.492,17.764 2.791,17.606C3.092,17.445 3.287,17.24 3.377,16.984C3.469,16.729 3.44,16.459 3.287,16.174C3.138,15.895 2.932,15.715 2.671,15.647C2.41,15.577 2.128,15.622 1.826,15.782C1.522,15.943 1.326,16.153 1.238,16.406Z" style="fill:rgb(0,166,80);fill-rule:nonzero;"/>
    <path d="M2.231,13.382L2.411,14L1.738,14.794L1.905,14.854L2.596,14.655L2.744,15.17L0.7,15.754L0.55,15.239L1.46,14.982L0.366,14.59L0.196,13.995L1.353,14.451L2.231,13.382Z" style="fill:rgb(0,166,80);fill-rule:nonzero;"/>
    <path d="M0,11.81L1.293,12.436L2.18,12.363L2.223,12.896L1.364,12.969L0.166,13.816L0.116,13.213L0.844,12.733L0.049,12.393L0,11.81Z" style="fill:rgb(0,166,80);fill-rule:nonzero;"/>
    <path d="M1.559,10.208L1.759,10.34L1.868,10.506L1.887,10.691L1.827,10.867L1.682,11.003L1.455,11.083C1.365,11.1 1.254,11.1 1.125,11.082C1,11.066 0.893,11.037 0.806,11L0.6,10.87L0.493,10.701L0.481,10.52L0.541,10.347L0.682,10.209C0.746,10.173 0.823,10.145 0.914,10.132C1.004,10.115 1.116,10.115 1.242,10.132C1.374,10.146 1.481,10.173 1.559,10.208ZM0.468,9.759C0.25,9.914 0.123,10.155 0.082,10.472C0.043,10.792 0.112,11.054 0.288,11.261C0.463,11.465 0.721,11.59 1.059,11.631C1.395,11.672 1.674,11.615 1.893,11.456C2.114,11.298 2.244,11.061 2.284,10.742C2.324,10.424 2.255,10.163 2.08,9.955C1.908,9.747 1.653,9.624 1.31,9.58C0.966,9.539 0.688,9.599 0.468,9.759Z" style="fill:rgb(0,166,80);fill-rule:nonzero;"/>
    <path d="M3.243,8.14C3.127,8.401 2.977,8.573 2.789,8.657C2.6,8.743 2.385,8.732 2.14,8.626L0.898,8.079L1.112,7.591L2.333,8.125C2.467,8.186 2.58,8.206 2.668,8.186C2.758,8.161 2.827,8.093 2.879,7.979C2.926,7.867 2.928,7.769 2.889,7.689C2.848,7.609 2.758,7.536 2.618,7.477L1.398,6.94L1.613,6.451L2.855,6.996C3.095,7.103 3.25,7.25 3.318,7.446C3.387,7.64 3.364,7.869 3.243,8.14Z" style="fill:rgb(0,166,80);fill-rule:nonzero;"/>
    <path d="M4.733,5.655L4.429,6.071L2.752,5.857L3.95,6.73L3.661,7.125L1.942,5.874L2.329,5.343L3.711,5.516L2.724,4.798L3.013,4.402L4.733,5.655Z" style="fill:rgb(0,166,80);fill-rule:nonzero;"/>
    <path d="M5.69,4.765L4.862,5.558L4.6,5.285L4.823,5.075L3.87,4.077L3.649,4.286L3.391,4.021L4.218,3.228L4.477,3.495L4.254,3.707L5.208,4.705L5.431,4.496L5.69,4.765Z" style="fill:rgb(0,166,80);fill-rule:nonzero;"/>
    <path d="M6.081,1.883L6.678,4.05L6.221,4.362L4.416,3.024L4.872,2.713L6.071,3.645L5.637,2.188L6.081,1.883Z" style="fill:rgb(0,166,80);fill-rule:nonzero;"/>
    <path d="M7.308,3.655L6.442,1.716L7.757,1.129L7.916,1.495L7.091,1.862L7.249,2.207L8.005,1.869L8.169,2.234L7.411,2.571L7.632,3.074L8.458,2.706L8.622,3.07L7.308,3.655Z" style="fill:rgb(0,166,80);fill-rule:nonzero;"/>
    <path d="M9.532,1.475L9.478,1.582L9.366,1.67L9.186,1.725L9.041,1.76L8.911,1.193L9.083,1.153L9.23,1.124L9.342,1.125L9.459,1.193L9.521,1.322L9.532,1.475ZM9.795,1.849C9.901,1.762 9.981,1.662 10.03,1.546C10.077,1.432 10.083,1.292 10.045,1.135C10.019,1.023 9.976,0.933 9.915,0.872L9.698,0.731L9.439,0.698C9.351,0.702 9.25,0.717 9.136,0.745L8.301,0.938L8.784,3.009L9.302,2.889L9.128,2.131L9.31,2.089L10.062,2.713L10.696,2.567L9.795,1.849Z" style="fill:rgb(0,166,80);fill-rule:nonzero;"/>
    <path d="M11.323,2.63C11.161,2.636 11.017,2.623 10.893,2.596C10.766,2.569 10.653,2.535 10.545,2.494L10.529,1.985L10.577,1.985C10.685,2.069 10.806,2.138 10.935,2.183C11.069,2.229 11.196,2.248 11.313,2.244L11.433,2.229L11.553,2.192L11.645,2.121L11.679,2.005L11.614,1.877L11.463,1.811L11.226,1.762L10.995,1.707C10.829,1.655 10.708,1.581 10.633,1.485C10.558,1.391 10.517,1.269 10.513,1.122C10.508,0.923 10.585,0.758 10.751,0.63C10.917,0.501 11.122,0.434 11.374,0.423C11.501,0.419 11.626,0.43 11.752,0.45C11.877,0.473 11.991,0.503 12.09,0.545L12.105,1.028L12.06,1.03C11.98,0.965 11.883,0.912 11.767,0.867C11.655,0.825 11.536,0.807 11.42,0.809L11.295,0.824L11.179,0.866L11.094,0.938L11.062,1.039L11.127,1.166C11.167,1.196 11.241,1.225 11.347,1.244L11.557,1.286L11.767,1.342C11.917,1.39 12.028,1.457 12.103,1.545C12.177,1.633 12.215,1.749 12.22,1.898C12.228,2.108 12.151,2.279 11.991,2.417C11.829,2.548 11.605,2.62 11.323,2.63Z" style="fill:rgb(0,166,80);fill-rule:nonzero;"/>
    <path d="M13.394,2.724L12.255,2.581L12.303,2.213L12.606,2.25L12.776,0.881L12.473,0.845L12.517,0.473L13.655,0.614L13.61,0.984L13.306,0.947L13.137,2.317L13.438,2.355L13.394,2.724Z" style="fill:rgb(0,166,80);fill-rule:nonzero;"/>
    <path d="M13.97,2.864L14.439,1.203L13.834,1.031L13.944,0.645L15.667,1.135L15.56,1.52L14.954,1.349L14.483,3.009L13.97,2.864Z" style="fill:rgb(0,166,80);fill-rule:nonzero;"/>
    <path d="M17.637,2.078L16.434,2.864L16.042,3.66L15.563,3.424L15.942,2.653L15.832,1.189L16.372,1.457L16.413,2.327L17.114,1.819L17.637,2.078Z" style="fill:rgb(0,166,80);fill-rule:nonzero;"/>
    <path d="M18.784,4.772L18.558,4.862L18.362,4.853L18.2,4.756L18.093,4.606L18.062,4.409L18.131,4.181C18.17,4.098 18.237,4.01 18.325,3.912C18.41,3.819 18.493,3.749 18.577,3.7L18.802,3.608L19.001,3.618L19.157,3.712L19.262,3.864L19.291,4.06L19.221,4.293C19.18,4.377 19.118,4.467 19.032,4.558C18.939,4.657 18.857,4.727 18.784,4.772ZM19.784,4.15C19.783,3.877 19.661,3.634 19.426,3.417C19.188,3.201 18.935,3.104 18.667,3.125C18.396,3.151 18.146,3.287 17.918,3.538C17.685,3.789 17.574,4.047 17.574,4.32C17.574,4.591 17.691,4.833 17.927,5.053C18.165,5.268 18.417,5.367 18.683,5.346C18.954,5.324 19.205,5.187 19.436,4.935C19.67,4.681 19.786,4.419 19.784,4.15Z" style="fill:rgb(0,166,80);fill-rule:nonzero;"/>
    <path d="M21.004,5.949L20.474,5.235L20.149,5.474L20.635,6.133L20.313,6.369L19.827,5.711L19.086,6.262L18.77,5.83L20.479,4.566L21.326,5.711L21.004,5.949Z" style="fill:rgb(0,166,80);fill-rule:nonzero;"/>
    <path d="M20.223,8.322C20.162,8.172 20.121,8.033 20.104,7.907C20.084,7.781 20.078,7.66 20.082,7.546L20.549,7.354L20.567,7.399C20.524,7.529 20.503,7.667 20.508,7.805C20.51,7.945 20.536,8.067 20.582,8.179L20.637,8.287L20.712,8.388L20.811,8.447L20.932,8.44L21.029,8.332L21.039,8.167L21,7.93L20.973,7.693C20.962,7.52 20.993,7.38 21.054,7.278C21.118,7.175 21.219,7.093 21.356,7.038C21.538,6.963 21.72,6.981 21.899,7.089C22.075,7.199 22.211,7.369 22.308,7.602C22.354,7.719 22.393,7.84 22.415,7.965C22.439,8.092 22.449,8.207 22.446,8.316L21.994,8.501L21.978,8.458C22.01,8.359 22.029,8.248 22.03,8.127C22.03,8.005 22.006,7.888 21.96,7.778L21.906,7.667L21.826,7.575L21.731,7.52L21.625,7.525L21.528,7.629C21.509,7.676 21.51,7.755 21.531,7.863L21.564,8.072L21.585,8.293C21.594,8.447 21.567,8.575 21.509,8.677C21.453,8.775 21.358,8.852 21.221,8.909C21.026,8.99 20.837,8.976 20.657,8.871C20.474,8.766 20.328,8.583 20.223,8.322Z" style="fill:rgb(0,166,80);fill-rule:nonzero;"/>
    <path d="M20.768,10.151C20.704,9.838 20.748,9.57 20.899,9.35C21.049,9.128 21.296,8.98 21.64,8.909C21.971,8.843 22.252,8.878 22.487,9.024C22.721,9.167 22.872,9.397 22.934,9.708L22.966,9.934L22.966,10.133L22.942,10.299L22.909,10.448L22.411,10.551L22.4,10.498L22.46,10.385L22.524,10.238L22.567,10.062L22.561,9.871L22.481,9.673L22.324,9.521C22.257,9.48 22.176,9.451 22.081,9.435C21.985,9.422 21.873,9.425 21.75,9.452C21.621,9.48 21.514,9.519 21.434,9.57L21.25,9.749L21.173,9.955L21.178,10.161L21.252,10.351L21.362,10.492L21.477,10.595L21.573,10.672L21.582,10.719L21.091,10.821L21.005,10.701L20.916,10.558L20.833,10.384C20.811,10.328 20.789,10.25 20.768,10.151Z" style="fill:rgb(0,166,80);fill-rule:nonzero;"/>
    <path d="M20.981,12.052L20.934,10.905L21.307,10.89L21.319,11.195L22.7,11.141L22.686,10.833L23.06,10.817L23.106,11.964L22.732,11.981L22.718,11.674L21.34,11.731L21.354,12.033L20.981,12.052Z" style="fill:rgb(0,166,80);fill-rule:nonzero;"/>
    <path d="M21.113,12.233L23.222,12.475L23.061,13.903L22.661,13.858L22.765,12.961L22.392,12.917L22.295,13.745L21.899,13.699L21.993,12.874L21.45,12.809L21.345,13.707L20.948,13.661L21.113,12.233Z" style="fill:rgb(0,166,80);fill-rule:nonzero;"/>
    <path d="M20.37,15.564L20.525,15.072L22.187,14.749L20.776,14.297L20.924,13.831L22.952,14.479L22.752,15.102L21.386,15.374L22.545,15.746L22.394,16.212L20.37,15.564Z" style="fill:rgb(0,166,80);fill-rule:nonzero;"/>
    <path d="M19.779,16.546C19.934,16.268 20.142,16.096 20.403,16.026C20.663,15.958 20.946,16.012 21.252,16.184C21.544,16.349 21.734,16.565 21.814,16.825C21.896,17.087 21.86,17.356 21.704,17.635L21.577,17.829L21.448,17.975L21.319,18.088L21.194,18.176L20.754,17.926L20.781,17.878L20.897,17.834L21.043,17.764L21.192,17.66L21.312,17.515L21.383,17.313L21.364,17.09L21.238,16.866C21.174,16.793 21.088,16.726 20.977,16.664C20.862,16.599 20.756,16.558 20.661,16.546C20.564,16.528 20.48,16.538 20.403,16.558L20.212,16.664L20.083,16.82L20.013,17.014L20.002,17.191L20.017,17.347L20.041,17.468L20.017,17.51L19.583,17.264L19.595,17.113L19.621,16.947L19.672,16.762L19.779,16.546Z" style="fill:rgb(0,166,80);fill-rule:nonzero;"/>
    <path d="M19.373,17.287L21.002,18.652L20.079,19.756L19.773,19.501L20.351,18.806L20.061,18.562L19.527,19.202L19.221,18.944L19.756,18.308L19.335,17.953L18.754,18.647L18.448,18.39L19.373,17.287Z" style="fill:rgb(0,166,80);fill-rule:nonzero;"/>
    <path d="M2.965,11.866C2.965,16.684 6.885,20.602 11.701,20.602C16.518,20.602 20.438,16.684 20.438,11.866C20.438,7.051 16.518,3.132 11.701,3.132C6.885,3.132 2.965,7.051 2.965,11.866ZM3.668,11.866C3.668,7.438 7.274,3.835 11.701,3.835C16.129,3.835 19.735,7.438 19.735,11.866C19.735,16.297 16.129,19.901 11.701,19.901C7.274,19.901 3.668,16.297 3.668,11.866Z" style="fill:rgb(0,166,80);fill-rule:nonzero;"/>
    <path d="M7.184,11.79C7.163,14.465 7.966,17.154 9.718,20.256L10.332,19.909C7.063,14.123 7.075,9.608 10.377,3.815L9.766,3.468C8.026,6.522 7.206,9.168 7.184,11.79Z" style="fill:rgb(0,166,80);fill-rule:nonzero;"/>
    <path d="M3.274,9.981L3.632,10.584C9.416,7.146 13.922,7.159 19.712,10.63L20.075,10.029C17.018,8.196 14.37,7.329 11.747,7.307C9.069,7.285 6.375,8.132 3.274,9.981Z" style="fill:rgb(0,166,80);fill-rule:nonzero;"/>
    <path d="M13.151,3.829C16.34,9.621 16.329,14.135 13.106,19.93L13.721,20.272C15.419,17.217 16.218,14.572 16.24,11.953C16.259,9.28 15.474,6.593 13.765,3.49L13.151,3.829Z" style="fill:rgb(0,166,80);fill-rule:nonzero;"/>
    <path d="M3.344,13.809C6.401,15.561 9.046,16.385 11.668,16.405C14.344,16.429 17.033,15.616 20.135,13.856L19.787,13.244C14,16.529 9.489,16.519 3.695,13.198L3.344,13.809Z" style="fill:rgb(0,166,80);fill-rule:nonzero;"/>
    <path d="M5.741,17.946L6.418,17.76C5.563,14.627 5.542,9.685 6.364,6.016L5.677,5.86C4.833,9.632 4.859,14.715 5.741,17.946Z" style="fill:rgb(0,166,80);fill-rule:nonzero;"/>
    <path d="M5.949,17.275L5.794,17.963C9.562,18.809 14.646,18.781 17.877,17.9L17.694,17.223C14.558,18.077 9.62,18.099 5.949,17.275Z" style="fill:rgb(0,166,80);fill-rule:nonzero;"/>
    <path d="M17.075,6.044C17.928,9.179 17.952,14.118 17.129,17.787L17.814,17.941C18.661,14.173 18.635,9.09 17.754,5.858L17.075,6.044Z" style="fill:rgb(0,166,80);fill-rule:nonzero;"/>
    <path d="M5.571,5.814L5.756,6.493C8.892,5.638 13.831,5.616 17.502,6.439L17.655,5.752C13.884,4.91 8.802,4.935 5.571,5.814Z" style="fill:rgb(0,166,80);fill-rule:nonzero;"/>
    <path d="M28.35,32.733L28.341,32.874L28.314,32.969L28.268,33.022L28.205,33.04L26.659,33.04L26.659,37.809L26.641,37.868L26.582,37.909L26.468,37.934L26.293,37.944L26.119,37.934L26.003,37.909L25.944,37.868L25.926,37.809L25.926,33.04L24.379,33.04L24.319,33.022L24.274,32.969L24.246,32.874L24.236,32.733L24.246,32.59L24.274,32.491L24.319,32.436L24.379,32.419L28.205,32.419L28.268,32.436L28.314,32.491L28.341,32.59L28.35,32.733Z" style="fill-rule: nonzero; fill: rgb(255, 255, 255);"/>
    <path d="M33.822,35.106C33.822,35.549 33.769,35.952 33.665,36.307C33.558,36.665 33.403,36.967 33.195,37.219C32.987,37.471 32.724,37.663 32.411,37.797C32.095,37.932 31.728,38 31.308,38C30.895,38 30.539,37.938 30.237,37.815C29.933,37.692 29.685,37.512 29.489,37.278C29.292,37.041 29.144,36.75 29.048,36.401C28.952,36.051 28.904,35.653 28.904,35.198C28.904,34.764 28.957,34.372 29.06,34.016C29.167,33.663 29.323,33.362 29.534,33.114C29.743,32.866 30.004,32.674 30.319,32.54C30.633,32.405 31.001,32.337 31.42,32.337C31.826,32.337 32.178,32.399 32.478,32.52C32.779,32.643 33.03,32.821 33.228,33.053C33.428,33.288 33.578,33.577 33.675,33.92C33.772,34.266 33.822,34.661 33.822,35.106ZM33.048,35.157C33.048,34.844 33.019,34.555 32.965,34.288C32.911,34.018 32.819,33.788 32.689,33.588C32.56,33.393 32.388,33.239 32.174,33.128C31.96,33.018 31.693,32.962 31.376,32.962C31.058,32.962 30.793,33.022 30.578,33.141C30.362,33.26 30.187,33.419 30.053,33.618C29.918,33.815 29.823,34.047 29.763,34.313C29.707,34.577 29.678,34.856 29.678,35.147C29.678,35.471 29.705,35.768 29.758,36.04C29.811,36.313 29.903,36.545 30.03,36.743C30.157,36.94 30.328,37.092 30.542,37.202C30.755,37.311 31.024,37.366 31.345,37.366C31.666,37.366 31.933,37.307 32.153,37.188C32.371,37.069 32.545,36.909 32.678,36.706C32.811,36.503 32.907,36.268 32.963,36C33.019,35.735 33.048,35.454 33.048,35.157Z" style="fill-rule: nonzero; fill: rgb(255, 255, 255);"/>
    <path d="M38.635,37.799L38.619,37.862L38.563,37.905L38.447,37.934L38.26,37.944C38.161,37.944 38.08,37.94 38.018,37.932L37.877,37.885L37.801,37.809L35.778,35.057L35.778,37.809L35.762,37.866L35.701,37.907L35.589,37.934L35.412,37.944L35.239,37.934L35.123,37.907L35.065,37.866L35.047,37.809L35.047,32.528L35.065,32.469L35.123,32.43L35.239,32.403L35.412,32.393L35.589,32.403L35.701,32.43L35.762,32.469L35.778,32.528L35.778,34.973L37.725,32.528L37.784,32.465L37.867,32.424L37.987,32.401L38.166,32.393L38.346,32.403L38.453,32.432L38.509,32.473L38.524,32.528L38.496,32.639L38.393,32.794L36.569,34.973L38.533,37.583L38.619,37.733L38.635,37.799Z" style="fill-rule: nonzero; fill: rgb(255, 255, 255);"/>
    <path d="M41.739,35.782L41.739,37.807L41.72,37.868L41.663,37.909L41.548,37.932L41.376,37.944L41.2,37.932L41.086,37.909L41.023,37.868L41.008,37.807L41.008,35.782L39.452,32.676L39.394,32.524L39.417,32.44L39.53,32.401C39.586,32.395 39.661,32.393 39.754,32.393L39.96,32.401L40.085,32.424L40.155,32.467L40.2,32.538L40.961,34.12C41.032,34.268 41.101,34.426 41.172,34.59C41.243,34.754 41.314,34.92 41.386,35.088L41.396,35.088C41.461,34.926 41.528,34.764 41.596,34.606C41.667,34.446 41.736,34.288 41.806,34.131L42.572,32.542L42.608,32.469L42.671,32.424L42.784,32.401L42.966,32.393C43.069,32.393 43.148,32.397 43.208,32.405L43.329,32.444L43.351,32.53L43.294,32.676L41.739,35.782Z" style="fill-rule: nonzero; fill: rgb(255, 255, 255);"/>
    <path d="M48.907,35.106C48.907,35.549 48.853,35.952 48.749,36.307C48.643,36.665 48.487,36.967 48.28,37.219C48.071,37.471 47.808,37.663 47.495,37.797C47.179,37.932 46.812,38 46.393,38C45.98,38 45.623,37.938 45.321,37.815C45.018,37.692 44.769,37.512 44.573,37.278C44.376,37.041 44.228,36.75 44.133,36.401C44.037,36.051 43.989,35.653 43.989,35.198C43.989,34.764 44.041,34.372 44.144,34.016C44.251,33.663 44.408,33.362 44.618,33.114C44.827,32.866 45.089,32.674 45.404,32.54C45.717,32.405 46.085,32.337 46.504,32.337C46.91,32.337 47.261,32.399 47.562,32.52C47.864,32.643 48.114,32.821 48.312,33.053C48.512,33.288 48.663,33.577 48.758,33.92C48.858,34.266 48.907,34.661 48.907,35.106ZM48.133,35.157C48.133,34.844 48.104,34.555 48.049,34.288C47.995,34.018 47.903,33.788 47.773,33.588C47.644,33.393 47.472,33.239 47.258,33.128C47.043,33.018 46.777,32.962 46.46,32.962C46.142,32.962 45.877,33.022 45.663,33.141C45.447,33.26 45.271,33.419 45.136,33.618C45.003,33.815 44.907,34.047 44.848,34.313C44.792,34.577 44.761,34.856 44.761,35.147C44.761,35.471 44.79,35.768 44.841,36.04C44.896,36.313 44.987,36.545 45.114,36.743C45.242,36.94 45.413,37.092 45.626,37.202C45.839,37.311 46.108,37.366 46.429,37.366C46.751,37.366 47.018,37.307 47.237,37.188C47.456,37.069 47.63,36.909 47.763,36.706C47.895,36.503 47.991,36.268 48.047,36C48.103,35.735 48.133,35.454 48.133,35.157Z" style="fill-rule: nonzero; fill: rgb(255, 255, 255);"/>
    <path d="M56.758,35.887C56.758,36.221 56.709,36.52 56.612,36.782C56.513,37.044 56.373,37.266 56.192,37.448C56.011,37.628 55.789,37.766 55.529,37.86C55.269,37.952 54.973,38 54.641,38C54.338,38 54.061,37.956 53.812,37.868C53.563,37.78 53.349,37.651 53.17,37.479C52.991,37.307 52.854,37.092 52.758,36.835C52.662,36.577 52.613,36.28 52.613,35.942L52.613,32.53L52.63,32.469L52.69,32.43L52.801,32.405L52.979,32.393L53.153,32.405L53.266,32.43L53.322,32.469L53.34,32.53L53.34,35.854C53.34,36.108 53.371,36.331 53.434,36.52C53.496,36.71 53.585,36.868 53.703,36.993C53.82,37.12 53.963,37.215 54.129,37.28C54.293,37.342 54.481,37.375 54.688,37.375C54.901,37.375 55.089,37.344 55.255,37.282C55.42,37.219 55.561,37.125 55.676,37C55.791,36.875 55.879,36.721 55.94,36.536C56,36.354 56.03,36.137 56.03,35.891L56.03,32.53L56.047,32.469L56.108,32.43L56.22,32.405L56.397,32.393L56.569,32.405L56.679,32.43L56.738,32.469L56.758,32.53L56.758,35.887Z" style="fill-rule: nonzero; fill: rgb(255, 255, 255);"/>
    <path d="M62.259,37.618L62.231,37.762L62.157,37.86L62.053,37.915L61.938,37.93L61.696,37.93L61.496,37.909L61.334,37.823L61.18,37.655C61.129,37.585 61.074,37.495 61.017,37.383L59.339,34.254C59.251,34.094 59.162,33.924 59.074,33.747C58.985,33.569 58.902,33.397 58.824,33.231L58.817,33.231C58.823,33.434 58.826,33.641 58.829,33.856C58.832,34.067 58.833,34.28 58.833,34.489L58.833,37.807L58.816,37.866L58.754,37.909L58.643,37.932L58.465,37.944L58.288,37.932L58.178,37.909L58.119,37.866L58.102,37.807L58.102,32.733C58.102,32.62 58.135,32.54 58.199,32.491L58.409,32.419L58.77,32.419L58.982,32.44L59.135,32.51L59.268,32.647L59.401,32.866L60.69,35.28C60.77,35.426 60.846,35.571 60.92,35.712C60.994,35.85 61.066,35.989 61.134,36.125C61.202,36.26 61.27,36.395 61.338,36.526C61.405,36.659 61.471,36.791 61.536,36.924L61.541,36.924C61.535,36.7 61.532,36.467 61.531,36.223C61.529,35.983 61.528,35.75 61.528,35.526L61.528,32.542L61.546,32.487L61.607,32.442L61.719,32.415L61.901,32.407L62.071,32.415L62.183,32.442L62.241,32.487L62.259,32.542L62.259,37.618Z" style="fill-rule: nonzero; fill: rgb(255, 255, 255);"/>
    <path d="M64.522,37.809L64.503,37.868L64.446,37.909L64.333,37.934L64.157,37.944L63.983,37.934L63.868,37.909L63.807,37.868L63.792,37.809L63.792,32.53L63.81,32.469L63.874,32.43L63.989,32.405L64.157,32.393L64.333,32.405L64.446,32.43L64.503,32.469L64.522,32.53L64.522,37.809Z" style="fill-rule: nonzero; fill: rgb(255, 255, 255);"/>
    <path d="M68.626,37.791L68.579,37.868L68.495,37.915L68.358,37.936L68.152,37.944L67.988,37.942L67.867,37.932L67.781,37.913L67.719,37.885L67.679,37.844L67.65,37.788L65.854,32.678L65.816,32.526L65.854,32.44L65.977,32.401C66.033,32.395 66.109,32.393 66.206,32.393L66.395,32.399L66.504,32.422L66.561,32.467L66.597,32.538L68.174,37.166L68.178,37.166L69.713,32.545L69.742,32.469L69.802,32.422L69.921,32.399L70.126,32.393L70.334,32.405L70.438,32.444L70.46,32.532L70.418,32.682L68.626,37.791Z" style="fill-rule: nonzero; fill: rgb(255, 255, 255);"/>
    <path d="M74.645,37.618L74.635,37.75L74.606,37.846L74.557,37.901L74.496,37.919L71.856,37.919L71.67,37.852C71.614,37.807 71.584,37.731 71.584,37.622L71.584,32.715C71.584,32.606 71.614,32.528 71.67,32.485L71.856,32.419L74.464,32.419L74.528,32.434L74.573,32.491L74.6,32.587L74.61,32.729L74.6,32.864L74.573,32.956L74.528,33.01L74.464,33.026L72.315,33.026L72.315,34.753L74.16,34.753L74.221,34.772L74.268,34.825L74.294,34.919L74.304,35.057L74.294,35.19L74.268,35.28L74.221,35.329L74.16,35.342L72.315,35.342L72.315,37.309L74.496,37.309L74.557,37.329L74.606,37.381L74.635,37.473L74.645,37.618Z" style="fill-rule: nonzero; fill: rgb(255, 255, 255);"/>
    <path d="M79.573,37.809L79.558,37.868L79.504,37.911L79.384,37.936L79.18,37.944L79.001,37.936L78.886,37.909L78.823,37.856L78.782,37.77L78.276,36.473C78.215,36.327 78.155,36.192 78.09,36.067C78.028,35.944 77.952,35.838 77.864,35.749C77.776,35.661 77.672,35.59 77.552,35.54C77.433,35.491 77.292,35.467 77.124,35.467L76.634,35.467L76.634,37.809L76.616,37.868L76.555,37.909L76.446,37.934L76.269,37.944L76.094,37.934L75.98,37.909L75.921,37.868L75.905,37.809L75.905,32.715C75.905,32.606 75.932,32.528 75.991,32.485L76.176,32.419L77.345,32.419C77.483,32.419 77.599,32.422 77.692,32.43C77.784,32.436 77.867,32.444 77.939,32.454C78.153,32.489 78.34,32.547 78.503,32.625C78.667,32.706 78.802,32.807 78.914,32.928C79.024,33.051 79.106,33.19 79.163,33.348C79.217,33.504 79.245,33.678 79.245,33.868C79.245,34.053 79.22,34.217 79.17,34.364C79.122,34.508 79.049,34.639 78.956,34.749C78.863,34.862 78.751,34.958 78.62,35.04C78.49,35.122 78.344,35.192 78.181,35.249C78.272,35.288 78.354,35.34 78.427,35.401L78.634,35.62C78.699,35.704 78.758,35.801 78.814,35.913C78.872,36.024 78.928,36.147 78.985,36.288L79.478,37.497C79.517,37.6 79.543,37.672 79.554,37.713L79.573,37.809ZM78.47,33.944C78.47,33.729 78.423,33.547 78.327,33.399C78.23,33.249 78.069,33.143 77.842,33.079L77.601,33.036C77.511,33.026 77.395,33.022 77.252,33.022L76.634,33.022L76.634,34.874L77.349,34.874C77.542,34.874 77.709,34.852 77.847,34.805C77.989,34.758 78.105,34.694 78.2,34.61C78.293,34.526 78.362,34.428 78.405,34.315C78.45,34.202 78.47,34.077 78.47,33.944Z" style="fill-rule: nonzero; fill: rgb(255, 255, 255);"/>
    <path d="M84.002,36.375C84.002,36.633 83.956,36.864 83.859,37.063C83.765,37.266 83.633,37.436 83.465,37.577C83.295,37.717 83.098,37.823 82.869,37.893C82.641,37.963 82.395,38 82.132,38C81.947,38 81.777,37.983 81.619,37.954C81.462,37.922 81.322,37.883 81.199,37.838C81.075,37.794 80.973,37.747 80.889,37.698L80.715,37.575L80.642,37.444L80.619,37.233L80.627,37.079L80.652,36.979L80.695,36.926L80.754,36.911L80.922,36.983C80.994,37.032 81.088,37.085 81.201,37.141C81.314,37.198 81.451,37.25 81.611,37.301C81.772,37.35 81.956,37.375 82.167,37.375C82.324,37.375 82.469,37.354 82.602,37.311C82.733,37.268 82.846,37.208 82.941,37.129C83.036,37.053 83.109,36.958 83.16,36.844C83.211,36.729 83.236,36.6 83.236,36.458C83.236,36.301 83.201,36.169 83.131,36.057C83.06,35.946 82.967,35.85 82.85,35.766C82.734,35.682 82.602,35.604 82.454,35.536C82.304,35.467 82.151,35.395 81.997,35.325C81.84,35.25 81.687,35.172 81.542,35.085C81.394,34.997 81.262,34.893 81.147,34.772C81.029,34.655 80.936,34.514 80.863,34.354C80.792,34.194 80.754,34.003 80.754,33.78C80.754,33.549 80.797,33.344 80.88,33.165C80.963,32.985 81.081,32.835 81.229,32.712C81.377,32.59 81.555,32.497 81.76,32.434C81.965,32.37 82.187,32.338 82.425,32.338C82.547,32.338 82.67,32.348 82.793,32.37C82.917,32.391 83.032,32.419 83.141,32.456C83.251,32.491 83.348,32.53 83.433,32.575L83.6,32.68L83.653,32.745L83.674,32.803L83.687,32.891L83.691,33.022L83.686,33.159L83.667,33.258L83.63,33.317L83.576,33.337L83.43,33.276C83.363,33.237 83.282,33.192 83.186,33.143C83.09,33.094 82.975,33.049 82.844,33.006C82.712,32.967 82.564,32.946 82.399,32.946C82.247,32.946 82.113,32.967 82.001,33.006C81.887,33.049 81.793,33.102 81.719,33.17C81.645,33.239 81.59,33.319 81.554,33.413C81.518,33.506 81.499,33.604 81.499,33.712C81.499,33.864 81.533,33.995 81.604,34.106C81.676,34.217 81.77,34.313 81.888,34.399C82.005,34.483 82.139,34.563 82.29,34.633C82.439,34.704 82.592,34.774 82.749,34.848C82.904,34.92 83.057,34.999 83.208,35.087C83.357,35.172 83.491,35.274 83.608,35.391C83.727,35.51 83.82,35.647 83.894,35.809C83.966,35.969 84.002,36.159 84.002,36.375Z" style="fill-rule: nonzero; fill: rgb(255, 255, 255);"/>
    <path d="M86.022,37.809L86.005,37.868L85.946,37.909L85.833,37.934L85.657,37.944L85.483,37.934L85.368,37.909L85.309,37.868L85.292,37.809L85.292,32.53L85.311,32.469L85.374,32.43L85.489,32.405L85.657,32.393L85.833,32.405L85.946,32.43L86.005,32.469L86.022,32.53L86.022,37.809Z" style="fill-rule: nonzero; fill: rgb(255, 255, 255);"/>
    <path d="M91.174,32.733L91.167,32.874L91.139,32.969L91.092,33.022L91.029,33.04L89.483,33.04L89.483,37.809L89.465,37.868L89.406,37.909L89.293,37.934L89.117,37.944L88.944,37.934L88.828,37.909L88.77,37.868L88.752,37.809L88.752,33.04L87.205,33.04L87.143,33.022L87.099,32.969L87.07,32.874L87.061,32.733L87.07,32.59L87.099,32.491L87.143,32.436L87.205,32.419L91.029,32.419L91.092,32.436L91.139,32.491L91.167,32.59L91.174,32.733Z" style="fill-rule: nonzero; fill: rgb(255, 255, 255);"/>
    <path d="M94.313,35.782L94.313,37.807L94.294,37.868L94.237,37.909L94.124,37.932L93.95,37.944L93.774,37.932L93.661,37.909L93.597,37.868L93.583,37.807L93.583,35.782L92.026,32.676L91.968,32.524L91.991,32.44L92.106,32.401C92.161,32.395 92.235,32.393 92.329,32.393L92.534,32.401L92.659,32.424L92.729,32.467L92.774,32.538L93.536,34.12C93.606,34.268 93.675,34.426 93.747,34.59C93.817,34.754 93.888,34.92 93.962,35.088L93.97,35.088C94.036,34.926 94.102,34.764 94.171,34.606C94.241,34.446 94.311,34.288 94.38,34.131L95.147,32.542L95.182,32.469L95.247,32.424L95.358,32.401L95.542,32.393C95.643,32.393 95.722,32.397 95.782,32.405L95.903,32.444L95.925,32.53L95.868,32.676L94.313,35.782Z" style="fill-rule: nonzero; fill: rgb(255, 255, 255);"/>
    <path d="M103.972,35.106C103.972,35.549 103.918,35.952 103.813,36.307C103.707,36.665 103.552,36.967 103.345,37.219C103.136,37.471 102.873,37.663 102.56,37.797C102.244,37.932 101.877,38 101.459,38C101.045,38 100.688,37.938 100.386,37.815C100.084,37.692 99.834,37.512 99.637,37.278C99.44,37.041 99.293,36.75 99.198,36.401C99.1,36.051 99.053,35.653 99.053,35.198C99.053,34.764 99.106,34.372 99.209,34.016C99.315,33.663 99.471,33.362 99.682,33.114C99.891,32.866 100.155,32.674 100.468,32.54C100.783,32.405 101.149,32.337 101.569,32.337C101.976,32.337 102.326,32.399 102.627,32.52C102.929,32.643 103.179,32.821 103.377,33.053C103.579,33.288 103.728,33.577 103.825,33.92C103.922,34.266 103.972,34.661 103.972,35.106ZM103.198,35.157C103.198,34.844 103.17,34.555 103.114,34.288C103.06,34.018 102.968,33.788 102.838,33.588C102.709,33.393 102.537,33.239 102.323,33.128C102.108,33.018 101.843,32.962 101.524,32.962C101.207,32.962 100.942,33.022 100.728,33.141C100.511,33.26 100.336,33.419 100.201,33.618C100.069,33.815 99.971,34.047 99.914,34.313C99.856,34.577 99.826,34.856 99.826,35.147C99.826,35.471 99.854,35.768 99.907,36.04C99.96,36.313 100.052,36.545 100.179,36.743C100.306,36.94 100.478,37.092 100.69,37.202C100.905,37.311 101.172,37.366 101.494,37.366C101.815,37.366 102.084,37.307 102.302,37.188C102.521,37.069 102.696,36.909 102.829,36.706C102.961,36.503 103.056,36.268 103.112,36C103.168,35.735 103.198,35.454 103.198,35.157Z" style="fill-rule: nonzero; fill: rgb(255, 255, 255);"/>
    <path d="M108.087,32.733L108.079,32.874L108.05,32.969L108.001,33.022L107.941,33.04L105.929,33.04L105.929,34.909L107.833,34.909L107.89,34.924L107.938,34.973L107.968,35.065L107.978,35.212L107.968,35.35L107.938,35.444L107.89,35.499L107.833,35.518L105.929,35.518L105.929,37.809L105.91,37.866L105.851,37.909L105.74,37.934L105.562,37.944L105.388,37.934L105.273,37.909L105.214,37.866L105.195,37.809L105.195,32.715C105.195,32.606 105.226,32.528 105.283,32.485L105.47,32.419L107.941,32.419L108.001,32.436L108.05,32.491L108.079,32.59L108.087,32.733Z" style="fill-rule: nonzero; fill: rgb(255, 255, 255);"/>
    <path d="M114.71,36.375C114.71,36.633 114.663,36.864 114.566,37.063C114.474,37.266 114.341,37.436 114.173,37.577C114.003,37.717 113.806,37.823 113.576,37.893C113.349,37.963 113.103,38 112.841,38C112.654,38 112.484,37.983 112.326,37.954C112.171,37.922 112.029,37.883 111.906,37.838C111.783,37.794 111.681,37.747 111.597,37.698L111.423,37.575L111.351,37.444L111.326,37.233L111.335,37.079L111.359,36.979L111.402,36.926L111.462,36.911L111.63,36.983C111.704,37.032 111.796,37.085 111.908,37.141C112.021,37.198 112.158,37.25 112.318,37.301C112.479,37.35 112.663,37.375 112.874,37.375C113.031,37.375 113.177,37.354 113.31,37.311C113.441,37.268 113.554,37.208 113.648,37.129C113.744,37.053 113.816,36.958 113.867,36.844C113.919,36.729 113.943,36.6 113.943,36.458C113.943,36.301 113.908,36.169 113.839,36.057C113.769,35.946 113.675,35.85 113.558,35.766C113.441,35.682 113.31,35.604 113.16,35.536C113.013,35.467 112.859,35.395 112.704,35.325C112.548,35.25 112.396,35.172 112.249,35.085C112.103,34.997 111.97,34.893 111.854,34.772C111.736,34.655 111.644,34.514 111.57,34.354C111.499,34.194 111.462,34.003 111.462,33.78C111.462,33.549 111.505,33.344 111.589,33.165C111.673,32.985 111.788,32.835 111.937,32.712C112.085,32.59 112.263,32.497 112.468,32.434C112.673,32.37 112.896,32.338 113.134,32.338C113.255,32.338 113.378,32.348 113.501,32.37C113.624,32.391 113.74,32.419 113.849,32.456C113.958,32.491 114.056,32.53 114.142,32.575L114.308,32.68L114.361,32.745L114.384,32.803L114.396,32.891L114.398,33.022L114.394,33.159L114.374,33.258L114.339,33.317L114.283,33.337L114.138,33.276C114.07,33.237 113.99,33.192 113.894,33.143C113.798,33.094 113.683,33.049 113.552,33.006C113.421,32.967 113.271,32.946 113.107,32.946C112.954,32.946 112.82,32.967 112.708,33.006C112.595,33.049 112.501,33.102 112.427,33.17C112.354,33.239 112.298,33.319 112.263,33.413C112.226,33.506 112.206,33.604 112.206,33.712C112.206,33.864 112.24,33.995 112.313,34.106C112.384,34.217 112.478,34.313 112.597,34.399C112.714,34.483 112.847,34.563 112.997,34.633C113.146,34.704 113.3,34.774 113.456,34.848C113.611,34.92 113.765,34.999 113.915,35.087C114.064,35.172 114.199,35.274 114.316,35.391C114.435,35.51 114.527,35.647 114.603,35.809C114.675,35.969 114.71,36.159 114.71,36.375Z" style="fill-rule: nonzero; fill: rgb(255, 255, 255);"/>
    <path d="M119.671,37.141L119.667,37.26L119.653,37.35L119.626,37.416L119.565,37.489L119.388,37.62C119.296,37.678 119.185,37.733 119.05,37.788C118.914,37.844 118.761,37.891 118.585,37.93C118.41,37.967 118.222,37.987 118.015,37.987C117.656,37.987 117.335,37.926 117.048,37.809C116.759,37.69 116.515,37.514 116.312,37.282C116.11,37.049 115.953,36.762 115.845,36.42C115.735,36.079 115.681,35.686 115.681,35.241C115.681,34.786 115.738,34.378 115.856,34.022C115.976,33.663 116.14,33.362 116.353,33.114C116.565,32.866 116.818,32.676 117.113,32.545C117.41,32.415 117.738,32.35 118.099,32.35C118.259,32.35 118.412,32.366 118.563,32.395C118.712,32.424 118.853,32.463 118.979,32.508C119.106,32.553 119.22,32.606 119.318,32.665C119.419,32.725 119.486,32.774 119.524,32.811L119.599,32.899L119.628,32.969L119.644,33.065L119.65,33.196L119.642,33.34L119.615,33.442L119.574,33.499L119.519,33.52L119.351,33.436C119.279,33.381 119.188,33.321 119.074,33.254C118.964,33.188 118.826,33.125 118.664,33.071C118.505,33.016 118.312,32.989 118.087,32.989C117.841,32.989 117.617,33.036 117.419,33.135C117.216,33.233 117.046,33.375 116.903,33.567C116.761,33.756 116.649,33.987 116.57,34.262C116.492,34.536 116.453,34.848 116.453,35.198C116.453,35.547 116.49,35.856 116.567,36.122C116.644,36.391 116.751,36.614 116.892,36.795C117.033,36.975 117.205,37.11 117.41,37.202C117.615,37.295 117.849,37.34 118.107,37.34C118.326,37.34 118.519,37.313 118.683,37.26C118.847,37.206 118.985,37.147 119.101,37.079C119.216,37.012 119.312,36.952 119.386,36.899L119.562,36.819L119.611,36.831L119.646,36.879L119.664,36.979L119.671,37.141Z" style="fill-rule: nonzero; fill: rgb(255, 255, 255);"/>
    <path d="M121.964,37.809L121.945,37.868L121.888,37.909L121.774,37.934L121.599,37.944L121.423,37.934L121.31,37.909L121.248,37.868L121.231,37.809L121.231,32.53L121.251,32.469L121.315,32.43L121.431,32.405L121.599,32.393L121.774,32.405L121.888,32.43L121.945,32.469L121.964,32.53L121.964,37.809Z" style="fill-rule: nonzero; fill: rgb(255, 255, 255);"/>
    <path d="M126.729,37.618L126.721,37.75L126.692,37.846L126.642,37.901L126.581,37.919L123.942,37.919L123.756,37.852C123.698,37.807 123.668,37.731 123.668,37.622L123.668,32.715C123.668,32.606 123.698,32.528 123.756,32.485L123.942,32.419L126.551,32.419L126.612,32.434L126.657,32.491L126.685,32.587L126.696,32.729L126.685,32.864L126.657,32.956L126.612,33.01L126.551,33.026L124.401,33.026L124.401,34.753L126.245,34.753L126.307,34.772L126.353,34.825L126.381,34.919L126.389,35.057L126.381,35.19L126.353,35.28L126.307,35.329L126.245,35.342L124.401,35.342L124.401,37.309L126.581,37.309L126.642,37.329L126.692,37.381L126.721,37.473L126.729,37.618Z" style="fill-rule: nonzero; fill: rgb(255, 255, 255);"/>
    <path d="M131.972,37.618L131.944,37.762L131.868,37.86L131.765,37.915L131.651,37.93L131.408,37.93L131.209,37.909L131.045,37.823L130.894,37.655C130.841,37.585 130.787,37.495 130.729,37.383L129.052,34.254C128.963,34.094 128.875,33.924 128.785,33.747C128.696,33.569 128.614,33.397 128.537,33.231L128.528,33.231C128.533,33.434 128.537,33.641 128.541,33.856C128.543,34.067 128.545,34.28 128.545,34.489L128.545,37.807L128.528,37.866L128.468,37.909L128.356,37.932L128.179,37.944L128,37.932L127.892,37.909L127.832,37.866L127.815,37.807L127.815,32.733C127.815,32.62 127.847,32.54 127.911,32.491L128.121,32.419L128.481,32.419L128.694,32.44L128.849,32.51L128.979,32.647L129.112,32.866L130.403,35.28C130.483,35.426 130.56,35.571 130.634,35.712C130.707,35.85 130.778,35.989 130.847,36.125C130.914,36.26 130.983,36.395 131.05,36.526C131.118,36.659 131.183,36.791 131.248,36.924L131.252,36.924C131.246,36.7 131.244,36.467 131.243,36.223C131.241,35.983 131.241,35.75 131.241,35.526L131.241,32.542L131.259,32.487L131.319,32.442L131.431,32.415L131.614,32.407L131.783,32.415L131.896,32.442L131.954,32.487L131.972,32.542L131.972,37.618Z" style="fill-rule: nonzero; fill: rgb(255, 255, 255);"/>
    <path d="M137.177,37.141L137.173,37.26L137.156,37.35L137.13,37.416L137.069,37.489L136.892,37.62C136.802,37.678 136.688,37.733 136.554,37.788C136.418,37.844 136.265,37.891 136.091,37.93C135.916,37.967 135.726,37.987 135.519,37.987C135.16,37.987 134.839,37.926 134.552,37.809C134.265,37.69 134.019,37.514 133.815,37.282C133.613,37.049 133.457,36.762 133.349,36.42C133.238,36.079 133.185,35.686 133.185,35.241C133.185,34.786 133.242,34.378 133.36,34.022C133.479,33.663 133.644,33.362 133.856,33.114C134.069,32.866 134.322,32.676 134.619,32.545C134.914,32.415 135.242,32.35 135.604,32.35C135.763,32.35 135.916,32.366 136.067,32.395C136.218,32.424 136.356,32.463 136.483,32.508C136.61,32.553 136.724,32.606 136.822,32.665C136.923,32.725 136.99,32.774 137.029,32.811L137.104,32.899L137.132,32.969L137.149,33.065L137.154,33.196L137.146,33.34L137.119,33.442L137.078,33.499L137.022,33.52L136.856,33.436C136.783,33.381 136.692,33.321 136.58,33.254C136.468,33.188 136.33,33.125 136.168,33.071C136.009,33.016 135.815,32.989 135.591,32.989C135.347,32.989 135.121,33.036 134.923,33.135C134.722,33.233 134.55,33.375 134.406,33.567C134.265,33.756 134.154,33.987 134.074,34.262C133.996,34.536 133.957,34.848 133.957,35.198C133.957,35.547 133.996,35.856 134.071,36.122C134.147,36.391 134.255,36.614 134.396,36.795C134.537,36.975 134.709,37.11 134.914,37.202C135.119,37.295 135.353,37.34 135.612,37.34C135.83,37.34 136.024,37.313 136.187,37.26C136.351,37.206 136.488,37.147 136.606,37.079C136.722,37.012 136.815,36.952 136.89,36.899L137.065,36.819L137.115,36.831L137.149,36.879L137.168,36.979L137.177,37.141Z" style="fill-rule: nonzero; fill: rgb(255, 255, 255);"/>
    <path d="M141.448,37.618L141.439,37.75L141.411,37.846L141.361,37.901L141.3,37.919L138.661,37.919L138.475,37.852C138.417,37.807 138.387,37.731 138.387,37.622L138.387,32.715C138.387,32.606 138.417,32.528 138.475,32.485L138.661,32.419L141.27,32.419L141.331,32.434L141.376,32.491L141.402,32.587L141.415,32.729L141.402,32.864L141.376,32.956L141.331,33.01L141.27,33.026L139.12,33.026L139.12,34.753L140.964,34.753L141.025,34.772L141.073,34.825L141.1,34.919L141.107,35.057L141.1,35.19L141.073,35.28L141.025,35.329L140.964,35.342L139.12,35.342L139.12,37.309L141.3,37.309L141.361,37.329L141.411,37.381L141.439,37.473L141.448,37.618Z" style="fill-rule: nonzero; fill: rgb(255, 255, 255);"/>
  </g>
</svg>